<svg width="208" height="70" viewBox="0 0 208 70" fill="none" xmlns="http://www.w3.org/2000/svg">
<path d="M88.5146 35.8991C88.5146 45.6154 80.8752 52.7751 71.5 52.7751C62.1246 52.7751 54.4852 45.6154 54.4852 35.8991C54.4852 26.1143 62.1246 19.0229 71.5 19.0229C80.8752 19.0229 88.5146 26.1143 88.5146 35.8991ZM81.0664 35.8991C81.0664 29.8273 76.6388 25.673 71.5 25.673C66.3612 25.673 61.9336 29.8273 61.9336 35.8991C61.9336 41.9099 66.3612 46.1251 71.5 46.1251C76.6388 46.1251 81.0664 41.9023 81.0664 35.8991Z" fill="#EA4335"/>
<path d="M125.221 35.8991C125.221 45.6154 117.581 52.7751 108.206 52.7751C98.8306 52.7751 91.1912 45.6154 91.1912 35.8991C91.1912 26.1219 98.8306 19.0229 108.206 19.0229C117.581 19.0229 125.221 26.1143 125.221 35.8991ZM117.772 35.8991C117.772 29.8273 113.345 25.673 108.206 25.673C103.067 25.673 98.6394 29.8273 98.6394 35.8991C98.6394 41.9099 103.067 46.1251 108.206 46.1251C113.345 46.1251 117.772 41.9023 117.772 35.8991Z" fill="#FBBC05"/>
<path d="M160.397 20.0425V50.3403C160.397 62.8034 153.009 67.8937 144.277 67.8937C136.056 67.8937 131.109 62.423 129.243 57.9491L135.727 55.2632C136.882 58.0099 139.712 61.2513 144.269 61.2513C149.859 61.2513 153.324 57.8197 153.324 51.3599V48.9327H153.064C151.396 50.9795 148.184 52.7675 144.132 52.7675C135.651 52.7675 127.881 45.4175 127.881 35.9599C127.881 26.4339 135.651 19.0229 144.132 19.0229C148.177 19.0229 151.389 20.811 153.064 22.7969H153.324V20.0501H160.397V20.0425ZM153.851 35.9599C153.851 30.0175 149.866 25.673 144.797 25.673C139.657 25.673 135.352 30.0175 135.352 35.9599C135.352 41.8415 139.657 46.1251 144.797 46.1251C149.866 46.1251 153.851 41.8415 153.851 35.9599Z" fill="#4285F4"/>
<path d="M172.058 2.28174V51.7383H164.794V2.28174H172.058Z" fill="#34A853"/>
<path d="M200.368 41.4512L206.15 45.286C204.284 48.0328 199.788 52.7654 192.018 52.7654C182.382 52.7654 175.187 45.3545 175.187 35.8892C175.187 25.8534 182.444 19.0132 191.185 19.0132C199.986 19.0132 204.291 25.9828 205.699 29.749L206.47 31.6664L183.797 41.01C185.534 44.3958 188.233 46.123 192.018 46.123C195.81 46.123 198.442 44.2664 200.368 41.4512ZM182.573 35.3795L197.731 29.1176C196.896 27.01 194.388 25.5414 191.436 25.5414C187.651 25.5414 182.382 28.8664 182.573 35.3795Z" fill="#EA4335"/>
<path d="M26.9859 31.5084V24.3486H51.2347C51.4718 25.5964 51.5942 27.0725 51.5942 28.6704C51.5942 34.0421 50.1182 40.6845 45.3618 45.4171C40.7353 50.2106 34.8242 52.7671 26.9936 52.7671C12.4794 52.7671 0.274719 41.004 0.274719 26.5628C0.274719 12.1214 12.4794 0.358398 26.9936 0.358398C35.023 0.358398 40.743 3.49319 45.0406 7.57905L39.963 12.6312C36.8812 9.75514 32.7059 7.51819 26.9859 7.51819C16.387 7.51819 8.09766 16.0171 8.09766 26.5628C8.09766 37.1084 16.387 45.6073 26.9859 45.6073C33.8606 45.6073 37.7759 42.8606 40.2842 40.3649C42.3182 38.341 43.6565 35.4497 44.1842 31.5008L26.9859 31.5084Z" fill="#4285F4"/>
</svg>
