<svg width="246" height="70" viewBox="0 0 246 70" fill="none" xmlns="http://www.w3.org/2000/svg">
<g clip-path="url(#clip0_1_202)">
<path d="M52.7615 13.2606C52.6956 12.9309 52.4318 12.7329 52.168 12.7329C51.9041 12.7329 46.6939 12.3371 46.6939 12.3371C46.6939 12.3371 43.0666 8.70851 42.605 8.31266C42.2092 7.91682 41.4178 8.04877 41.0881 8.11475C41.0221 8.11475 40.2967 8.37864 39.0436 8.77449C37.7905 5.21191 35.68 1.97921 31.8548 1.97921H31.5251C30.4698 0.593762 29.1508 0 27.9636 0C19.1261 0 14.9051 11.0176 13.5861 16.6254C10.1566 17.6809 7.71637 18.4066 7.38662 18.5386C5.47401 19.1324 5.40805 19.1983 5.21021 20.9796C5.01234 22.365 0 61.1575 0 61.1575L39.0436 68.4146L60.2141 63.8624C60.2801 63.7964 52.8276 13.5905 52.7615 13.2606ZM36.9331 9.30227C35.9438 9.56616 34.8226 9.962 33.6354 10.3578V9.63214C33.6354 7.45501 33.3717 5.67373 32.8441 4.28829C34.8226 4.55218 36.0757 6.7293 36.9331 9.30227ZM30.3379 4.7501C30.8655 6.13554 31.1953 8.04877 31.1953 10.6877V11.0836C29.0189 11.7433 26.7105 12.469 24.4022 13.1948C25.7212 8.18073 28.2934 5.67373 30.3379 4.7501ZM27.7658 2.2431C28.1615 2.2431 28.5572 2.37505 28.8869 2.63894C26.051 3.95841 23.0172 7.32306 21.7641 14.0524C19.8516 14.6461 18.0709 15.1739 16.3561 15.7676C17.873 10.6217 21.4343 2.2431 27.7658 2.2431Z" fill="#95BF47"/>
<path d="M52.1678 12.6675C51.904 12.6675 46.6938 12.2717 46.6938 12.2717C46.6938 12.2717 43.0665 8.64314 42.6048 8.24729C42.4728 8.11535 42.275 7.9834 42.0771 7.9834L39.1753 68.4153L60.3458 63.863C60.3458 63.863 52.8932 13.5911 52.8932 13.2612C52.6954 12.8655 52.4316 12.7335 52.1678 12.6675Z" fill="#5E8E3E"/>
<path d="M31.9204 24.3369L29.3483 32.0557C29.3483 32.0557 27.04 30.8022 24.27 30.8022C20.1151 30.8022 19.9171 33.4411 19.9171 34.035C19.9171 37.5975 29.1505 38.917 29.1505 47.2296C29.1505 53.761 24.9955 57.9834 19.4555 57.9834C12.7284 57.9834 9.36487 53.827 9.36487 53.827L11.1456 47.8894C11.1456 47.8894 14.7069 50.9241 17.6748 50.9241C19.6534 50.9241 20.4448 49.4067 20.4448 48.2853C20.4448 43.6671 12.9262 43.4691 12.9262 35.8162C12.9262 29.4167 17.477 23.2812 26.7762 23.2812C30.1397 23.3472 31.9204 24.3369 31.9204 24.3369Z" fill="white"/>
<path d="M84.9453 38.9276C82.835 37.806 81.7137 36.8165 81.7137 35.497C81.7137 33.7816 83.2305 32.7261 85.6049 32.7261C88.3748 32.7261 90.8151 33.8476 90.8151 33.8476L92.7276 27.976C92.7276 27.976 90.947 26.5905 85.7368 26.5905C78.4821 26.5905 73.4038 30.7469 73.4038 36.6185C73.4038 39.9173 75.778 42.4901 78.8777 44.2715C81.4499 45.6569 82.3072 46.7125 82.3072 48.2299C82.3072 49.8133 81.0541 51.0668 78.6799 51.0668C75.1845 51.0668 71.8868 49.2855 71.8868 49.2855L69.8424 55.1571C69.8424 55.1571 72.8762 57.2023 78.0203 57.2023C85.473 57.2023 90.881 53.5078 90.881 46.9104C90.881 43.3479 88.177 40.8409 84.9453 38.9276ZM114.69 26.5246C110.996 26.5246 108.095 28.3059 105.918 30.9448L105.852 30.8789L109.084 14.1875H100.774L92.6617 56.7405H100.972L103.742 42.2262C104.797 36.7505 107.699 33.3199 110.337 33.3199C112.249 33.3199 112.975 34.5734 112.975 36.4206C112.975 37.5421 112.909 38.9936 112.645 40.1151L109.545 56.7405H117.855L121.087 39.5874C121.417 37.806 121.681 35.6289 121.681 34.1115C121.483 29.2955 119.043 26.5246 114.69 26.5246ZM140.345 26.5246C130.32 26.5246 123.725 35.563 123.725 45.6569C123.725 52.0564 127.683 57.2683 135.135 57.2683C144.961 57.2683 151.557 48.4938 151.557 38.1359C151.622 32.1324 148.127 26.5246 140.345 26.5246ZM136.257 50.8689C133.419 50.8689 132.233 48.4938 132.233 45.393C132.233 40.6429 134.673 32.858 139.224 32.858C142.126 32.858 143.181 35.431 143.181 37.872C143.115 43.018 140.608 50.8689 136.257 50.8689ZM172.859 26.5246C167.254 26.5246 164.088 31.4726 164.088 31.4726H164.022L164.483 26.9864H157.097C156.767 30.0211 156.041 34.6394 155.382 38.004L149.644 68.4838H157.954L160.262 56.1468H160.461C160.461 56.1468 162.175 57.2023 165.341 57.2023C175.102 57.2023 181.499 47.1743 181.499 37.0804C181.499 31.5386 178.927 26.5246 172.859 26.5246ZM164.879 51.0008C162.702 51.0008 161.45 49.7472 161.45 49.7472L162.835 42.0284C163.824 36.8165 166.528 33.3859 169.43 33.3859C172.001 33.3859 172.727 35.7609 172.727 37.938C172.793 43.3479 169.561 51.0008 164.879 51.0008ZM193.37 14.5834C190.732 14.5834 188.622 16.6945 188.622 19.3994C188.622 21.8405 190.204 23.5558 192.579 23.5558H192.645C195.283 23.5558 197.459 21.7745 197.526 18.7398C197.459 16.2986 195.811 14.5834 193.37 14.5834ZM181.697 56.6745H190.007L195.612 27.1184H187.237L181.697 56.6745ZM216.85 27.1184H211.046L211.309 25.7329C211.771 22.896 213.486 20.389 216.255 20.389C217.772 20.389 218.894 20.8509 218.894 20.8509L220.477 14.3195C220.477 14.3195 219.091 13.5938 215.926 13.5938C213.024 13.5938 210.057 14.4514 207.814 16.3646C204.978 18.7396 203.659 22.2362 202.999 25.7989L202.735 27.1843H198.844L197.592 33.4518H201.483L197.063 56.7405H205.374L209.792 33.4518H215.53L216.85 27.1184ZM236.833 27.1184C236.833 27.1184 231.622 40.2471 229.314 47.4383H229.248C229.116 45.1291 227.204 27.1184 227.204 27.1184H218.432L223.444 54.1675C223.51 54.7613 223.51 55.1571 223.247 55.553C222.258 57.4661 220.608 59.2475 218.695 60.5669C217.113 61.6885 215.399 62.4801 213.948 62.942L216.255 70.0011C217.971 69.6713 221.466 68.2199 224.368 65.449C228.127 61.8864 231.688 56.4106 235.25 48.9556L245.407 27.1184H236.833Z" fill="black"/>
</g>
<defs>
<clipPath id="clip0_1_202">
<rect width="246" height="70" fill="white"/>
</clipPath>
</defs>
</svg>
